#!OML:ASF H:\charlestonDancing\Project 1\Capture day 1\Session 1\femaleDancer.ASF
:FULLY-SPECIFIED
:DEGREES
1
root -1.11547 18.0116 -1.1819 23.2783 -81.4298 -19.3678
lowerback 7.8681 2.36483 6.42455
upperback 1.15867 3.66162 0.356138
thorax -2.82333 1.7437 -3.59242
lowerneck 3.01712 -3.98587 -1.06759
upperneck 9.55415 -5.54127 0.604395
head 2.5523 -2.83725 0.294122
rclavicle -1.03865e-014 7.95139e-015
rhumerus -27.4565 13.5531 -82.0798
rradius 75.7099
rwrist 19.4366
rhand -30.3774 -30.8584
rfingers 7.12502
rthumb -3.68193 -60.8063
lclavicle -1.03865e-014 7.95139e-015
lhumerus -48.6139 18.7409 18.2753
lradius 150.809
lwrist 1.22377
lhand 5.434 -3.33509
lfingers 7.12502
lthumb 30.7838 24.1074
rfemur -13.5216 -6.19966 24.8224
rtibia 28.3927
rfoot -18.4077 -2.8583
rtoes -15.7065
lfemur -15.1431 -6.88022 -21.5532
ltibia 32.9528
lfoot -16.4779 -7.4423
ltoes -19.3791
2
root -1.05 17.9822 -1.15878 23.9037 -81.2305 -19.9015
lowerback 8.23999 2.21213 6.62611
upperback 1.33911 3.49662 0.613213
thorax -2.86396 1.65898 -3.4371
lowerneck 2.97706 -3.9284 -1.24027
upperneck 9.25636 -5.4365 0.366762
head 2.45625 -2.79315 0.252654
rclavicle -1.48592e-014 -9.93923e-015
rhumerus -26.7206 14.0325 -81.4942
rradius 76.1258
rwrist 18.9267
rhand -30.229 -30.6875
rfingers 7.12502
rthumb -3.53861 -60.6378
lclavicle -1.48592e-014 -9.93923e-015
lhumerus -49.0037 19.2507 18.2433
lradius 150.916
lwrist 1.32111
lhand 5.34637 -3.19578
lfingers 7.12502
lthumb 30.7003 24.2624
rfemur -14.4889 -5.81129 24.906
rtibia 29.6378
rfoot -18.5861 -3.29471
rtoes -15.5453
lfemur -16.1205 -7.7238 -21.4451
ltibia 34.5257
lfoot -17.5065 -8.30444
ltoes -21.6418
3
root -0.973819 17.9452 -1.13372 24.3189 -81.1175 -20.2965
lowerback 8.83805 2.02524 6.78241
upperback 1.51798 3.30028 0.850059
thorax -3.03587 1.55365 -3.28394
lowerneck 2.9754 -3.80681 -1.45054
upperneck 8.93619 -5.25504 0.214625
head 2.34974 -2.70971 0.24653
rclavicle -2.78299e-014 -1.94809e-014
rhumerus -25.8126 14.6217 -80.9264
rradius 76.395
rwrist 18.3191
rhand -30.098 -30.6945
rfingers 7.12502
rthumb -3.41209 -60.6469
lclavicle -2.78299e-014 -1.94809e-014
lhumerus -49.5542 19.758 17.9053
lradius 151.114
lwrist 1.54648
lhand 5.16771 -2.9667
lfingers 7.12502
lthumb 30.5299 24.5233
rfemur -15.6156 -5.40079 24.9131
rtibia 31.2898
rfoot -18.8616 -3.77497
rtoes -15.7615
lfemur -17.3443 -8.3727 -21.4306
ltibia 36.6172
lfoot -17.5705 -9.71003
ltoes -21.7777
4
root -0.884406 17.8982 -1.10305 25.0531 -81.1687 -21.1006
lowerback 9.65063 1.95077 7.0295
upperback 1.74468 3.2752 1.01065
thorax -3.24782 1.53057 -3.28431
lowerneck 3.07521 -3.78098 -1.53285
upperneck 8.39201 -5.20535 0.16794
head 2.15314 -2.68251 0.255405
rclavicle 4.14466e-014 -3.57812e-015
rhumerus -24.8012 14.9065 -80.3095
rradius 76.5395
rwrist 17.5508
rhand -30.2027 -30.7663
rfingers 7.12502
rthumb -3.51316 -60.7171
lclavicle 4.14466e-014 -3.57812e-015
lhumerus -49.7695 20.2131 17.5896
lradius 151.327
lwrist 1.86791
lhand 4.73525 -2.52642
lfingers 7.12502
lthumb 30.1174 25.0395
rfemur -16.7532 -4.93186 24.8667
rtibia 33.053
rfoot -19.1172 -4.16359
rtoes -16.3437
lfemur -18.5334 -8.64263 -21.5176
ltibia 38.6577
lfoot -16.5692 -11.0365
ltoes -20.5164
5
root -0.785927 17.835 -1.06485 28.1454 -81.4285 -24.4406
lowerback 10.6854 1.99036 7.61059
upperback 2.06009 3.45153 1.192
thorax -3.44657 1.60303 -3.47971
lowerneck 3.11189 -3.83511 -1.47814
upperneck 7.81635 -5.2548 0.0377487
head 1.95343 -2.70115 0.213595
rclavicle -6.45056e-014 2.3059e-014
rhumerus -23.7057 14.9583 -79.6525
rradius 76.5577
rwrist 16.7241
rhand -30.4104 -30.7
rfingers 7.12502
rthumb -3.71383 -60.6474
lclavicle -6.45056e-014 2.3059e-014
lhumerus -49.804 20.6747 17.1586
lradius 151.572
lwrist 2.39937
lhand 4.17468 -1.97921
lfingers 7.12502
lthumb 29.5825 25.6829
rfemur -17.9398 -4.25743 25.0425
rtibia 35.1541
rfoot -19.4782 -4.25517
rtoes -16.2269
lfemur -19.5713 -8.34907 -21.43
ltibia 40.7403
lfoot -15.5002 -11.5346
ltoes -19.4677
6
root -0.682099 17.7469 -1.02732 33.0758 -81.8247 -29.746
lowerback 11.8977 2.07047 8.22293
upperback 2.40773 3.70898 1.42022
thorax -3.69398 1.71076 -3.66463
lowerneck 3.03104 -3.84588 -1.41066
upperneck 7.38227 -5.24643 -0.13208
head 1.81938 -2.69249 0.154001
rclavicle 7.43455e-014 3.22031e-014
rhumerus -22.6037 14.9403 -79.0837
rradius 76.4151
rwrist 15.8175
rhand -30.4769 -30.9386
rfingers 7.12502
rthumb -3.77796 -60.8848
lclavicle 7.43455e-014 3.22031e-014
lhumerus -49.9418 21.2223 16.1853
lradius 151.881
lwrist 3.42035
lhand 3.59364 -1.24807
lfingers 7.12502
lthumb 29.0277 26.5109
rfemur -19.2389 -3.42107 25.3506
rtibia 37.6337
rfoot -19.6711 -4.07193
rtoes -15.7781
lfemur -20.5176 -7.76471 -21.1931
ltibia 42.7161
lfoot -14.9517 -10.7316
ltoes -16.5859
7
root -0.579831 17.6462 -0.991444 38.4956 -82.2612 -35.6043
lowerback 13.1412 2.15919 8.68402
upperback 2.78331 3.969 1.62051
thorax -3.92825 1.82018 -3.80071
lowerneck 2.99697 -3.79362 -1.44821
upperneck 6.88816 -5.16679 -0.116804
head 1.66713 -2.64732 0.171296
rclavicle -5.68524e-014 -2.14687e-014
rhumerus -21.5547 14.7989 -78.6765
rradius 76.1376
rwrist 14.8013
rhand -30.5569 -31.2793
rfingers 7.12502
rthumb -3.85526 -61.2241
lclavicle -5.68524e-014 -2.14687e-014
lhumerus -50.0404 21.8777 14.6578
lradius 152.133
lwrist 4.81546
lhand 3.02999 -0.329135
lfingers 7.12502
lthumb 28.4892 27.5213
rfemur -20.6814 -2.74093 25.5978
rtibia 40.4952
rfoot -19.7188 -3.68316
rtoes -16.6235
lfemur -21.4388 -7.06217 -20.9856
ltibia 44.491
lfoot -15.1459 -9.1659
ltoes -14.6668
8
root -0.482695 17.5341 -0.955532 45.6727 -82.809 -43.2075
lowerback 14.3271 2.32188 9.08622
upperback 3.1587 4.31751 1.76353
thorax -4.11088 1.9746 -3.97967
lowerneck 3.05721 -3.75391 -1.47588
upperneck 6.27784 -5.10703 -0.0560833
head 1.46423 -2.61038 0.203887
rclavicle -7.55382e-015 7.15625e-015
rhumerus -20.6193 14.4999 -78.4389
rradius 75.7367
rwrist 13.7524
rhand -30.6104 -31.3891
rfingers 7.12502
rthumb -3.90696 -61.3331
lclavicle -7.55382e-015 7.15625e-015
lhumerus -50.0203 22.5389 12.7648
lradius 152.263
lwrist 6.36352
lhand 2.39709 0.635851
lfingers 7.12502
lthumb 27.8843 28.586
rfemur -22.3617 -2.20467 25.8383
rtibia 43.7098
rfoot -20.1143 -3.07852
rtoes -17.8847
lfemur -22.2102 -6.03042 -20.8356
ltibia 46.0779
lfoot -15.4511 -9.93487
ltoes -8.73979
9
root -0.387381 17.4094 -0.917804 53.0363 -83.508 -50.7789
lowerback 15.3362 2.5678 9.22298
upperback 3.41437 4.73187 1.77364
thorax -4.31926 2.16214 -4.16368
lowerneck 3.19099 -3.76877 -1.36952
upperneck 5.65242 -5.11394 -0.143275
head 1.23864 -2.60635 0.170485
rclavicle 2.78299e-014 -2.94201e-014
rhumerus -19.9765 13.9064 -78.3655
rradius 75.2144
rwrist 12.6746
rhand -31.0412 -31.2649
rfingers 7.12502
rthumb -4.32289 -61.2008
lclavicle 2.78299e-014 -2.94201e-014
lhumerus -49.8201 23.1959 10.5693
lradius 152.319
lwrist 8.24866
lhand 1.8849 1.77659
lfingers 7.12502
lthumb 27.3945 29.8052
rfemur -24.4456 -1.81267 25.7144
rtibia 47.149
rfoot -19.9338 -2.56142
rtoes -22.567
lfemur -22.9557 -4.85937 -21.0875
ltibia 47.5745
lfoot -16.6302 -9.86885
ltoes -7.876
10
root -0.294996 17.2845 -0.879233 57.7575 -84.4025 -55.4469
lowerback 16.0367 2.8162 8.88233
upperback 3.55318 5.05124 1.62175
thorax -4.52304 2.31043 -4.23158
lowerneck 3.39268 -3.76097 -1.30346
upperneck 5.08665 -5.0957 -0.225166
head 1.02388 -2.59156 0.146209
rclavicle -4.39314e-014 1.19271e-014
rhumerus -19.6083 13.0265 -78.5151
rradius 74.3637
rwrist 11.7173
rhand -32.068 -30.8497
rfingers 7.12502
rthumb -5.31434 -60.763
lclavicle -4.39314e-014 1.19271e-014
lhumerus -49.4103 23.9892 8.15494
lradius 152.227
lwrist 10.4346
lhand 1.77704 2.99239
lfingers 7.12502
lthumb 27.2913 31.0373
rfemur -26.8428 -1.73619 24.9502
rtibia 50.6447
rfoot -20.212 -1.31512
rtoes -22.4908
lfemur -23.9379 -3.8903 -21.9423
ltibia 49.0729
lfoot -17.9175 -9.32789
ltoes -8.15491
